<svg width="34" height="106" viewBox="0 0 34 106" fill="none" xmlns="http://www.w3.org/2000/svg">
<path opacity="0.25" d="M0.0960307 100.573C-0.139985 101.072 0.0734667 101.668 0.57278 101.904L8.7096 105.75C9.20891 105.986 9.80501 105.773 10.041 105.273C10.277 104.774 10.0636 104.178 9.56428 103.942L2.33155 100.523L5.75028 93.2905C5.98629 92.7912 5.77285 92.1951 5.27353 91.9591C4.77422 91.7231 4.17811 91.9365 3.9421 92.4358L0.0960307 100.573ZM1.00013 0.999999C0.663013 1.94146 0.662643 1.94133 0.662395 1.94124C0.662476 1.94127 0.66235 1.94122 0.662506 1.94128C0.662819 1.94139 0.663616 1.94168 0.664894 1.94215C0.667446 1.94307 0.671913 1.9447 0.678265 1.94703C0.690971 1.9517 0.711212 1.95921 0.73875 1.9696C0.793827 1.99039 0.878071 2.02275 0.989536 2.06714C1.21249 2.15592 1.54424 2.2928 1.96925 2.48155C2.81943 2.85912 4.0418 3.44378 5.51231 4.26553C8.45482 5.90983 12.3816 8.4982 16.3075 12.2682C24.1435 19.793 32.0001 32.0433 32.0001 51L34.0001 51C34.0001 31.4151 25.8568 18.6654 17.6928 10.8256C13.6186 6.91326 9.54543 4.22819 6.48794 2.51963C4.95846 1.66494 3.68082 1.05331 2.781 0.653698C2.33102 0.453857 1.97527 0.306928 1.72947 0.209045C1.60656 0.1601 1.51111 0.123408 1.4451 0.0984865C1.41208 0.0860253 1.38643 0.0765057 1.36837 0.0698674C1.35934 0.0665482 1.35221 0.0639492 1.34702 0.0620629C1.34442 0.0611198 1.3423 0.0603548 1.34067 0.059767C1.33985 0.0594733 1.339 0.0591646 1.33859 0.0590181C1.33785 0.0587542 1.33724 0.0585344 1.00013 0.999999ZM32.0001 51C32.0001 69.9567 24.1435 82.207 16.3075 89.7318C12.3816 93.5018 8.45482 96.0902 5.51231 97.7345C4.04179 98.5562 2.81943 99.1409 1.96924 99.5184C1.54423 99.7072 1.21248 99.8441 0.989532 99.9329C0.878067 99.9772 0.793823 100.01 0.738746 100.03C0.711208 100.041 0.690967 100.048 0.67826 100.053C0.671909 100.055 0.667442 100.057 0.66489 100.058C0.663612 100.058 0.662815 100.059 0.662502 100.059C0.662342 100.059 0.662471 100.059 0.662391 100.059C0.662639 100.059 0.663009 100.059 1.00012 101C1.33723 101.941 1.33785 101.941 1.33858 101.941C1.33899 101.941 1.33985 101.941 1.34066 101.94C1.34229 101.94 1.34441 101.939 1.34701 101.938C1.35221 101.936 1.35934 101.933 1.36837 101.93C1.38642 101.923 1.41208 101.914 1.44509 101.902C1.51111 101.877 1.60655 101.84 1.72946 101.791C1.97526 101.693 2.33101 101.546 2.781 101.346C3.68082 100.947 4.95845 100.335 6.48793 99.4804C9.54542 97.7718 13.6186 95.0867 17.6928 91.1744C25.8567 83.3346 34.0001 70.5849 34.0001 51L32.0001 51Z" fill="#6A3EA1"/>
</svg>
